-37.0	-40.0	71.0	1	1	S1
-36.0	-50.0	70.0	1	1	S2
-34.0	-57.0	68.0	1	1	S3
-29.0	-68.0	63.0	1	1	S4
-15.0	-64.0	71.0	1	1	S5
-21.0	-52.0	76.0	1	1	S6
-10.0	-56.0	77.0	1	1	S7
-28.0	-42.0	76.0	1	1	S8
-10.0	-51.0	78.0	1	1	S9
0.0	-46.0	73.0	1	1	S10
-10.0	-35.0	81.0	1	1	S11
1.0	-35.0	76.0	1	1	S12
-6.0	-18.0	79.0	1	1	S13
3.0	-21.0	78.0	1	1	S14
-5.0	1.0	75.0	1	1	S15
-19.0	-12.0	79.0	1	1	S16
-17.0	13.0	71.0	1	1	S17
-31.0	-2.0	71.0	1	1	S18
-21.0	-29.0	79.0	1	1	S19
-37.0	-21.0	71.0	1	1	S20
-44.0	-14.0	65.0	1	1	S21
-47.0	-31.0	66.0	1	1	S22
-43.0	-45.0	66.0	1	1	S23
-39.0	-63.0	61.0	1	1	S24
-23.0	-30.0	78.0	2	1	S25
