-37.0	-36.0	72.0	1	1	S1
-36.0	-46.0	71.0	1	1	S2
-35.0	-56.0	68.0	1	1	S3
-31.0	-69.0	61.0	1	1	S4
-14.0	-64.0	71.0	1	1	S5
-21.0	-50.0	77.0	1	1	S6
-8.0	-53.0	77.0	1	1	S7
-26.0	-39.0	77.0	1	1	S8
-8.0	-49.0	77.0	1	1	S9
2.0	-45.0	75.0	1	1	S10
-7.0	-32.0	80.0	1	1	S11
1.0	-33.0	76.0	1	1	S12
-4.0	-16.0	78.0	1	1	S13
5.0	-19.0	79.0	1	1	S14
-3.0	1.0	75.0	1	1	S15
-16.0	-10.0	79.0	1	1	S16
-12.0	11.0	73.0	1	1	S17
-28.0	0.0	71.0	1	1	S18
-17.0	-26.0	78.0	1	1	S19
-34.0	-18.0	73.0	1	1	S20
-41.0	-11.0	67.0	1	1	S21
-46.0	-27.0	67.0	1	1	S22
-44.0	-41.0	66.0	1	1	S23
-43.0	-62.0	59.0	1	1	S24
-23.0	-30.0	78.0	2	1	S25
