-38.0	-26.0	71.0	1	1	S1
-39.0	-36.0	71.0	1	1	S2
-39.0	-46.0	69.0	1	1	S3
-35.0	-64.0	63.0	1	1	S4
-16.0	-58.0	75.0	1	1	S5
-24.0	-40.0	78.0	1	1	S6
-7.0	-43.0	79.0	1	1	S7
-27.0	-28.0	77.0	1	1	S8
-8.0	-40.0	80.0	1	1	S9
3.0	-36.0	78.0	1	1	S10
-8.0	-19.0	80.0	1	1	S11
4.0	-18.0	78.0	1	1	S12
-3.0	-6.0	75.0	1	1	S13
6.0	-8.0	76.0	1	1	S14
-3.0	5.0	74.0	1	1	S15
-18.0	-2.0	76.0	1	1	S16
-15.0	13.0	71.0	1	1	S17
-30.0	6.0	70.0	1	1	S18
-20.0	-14.0	79.0	1	1	S19
-34.0	-8.0	70.0	1	1	S20
-41.0	-3.0	64.0	1	1	S21
-46.0	-18.0	64.0	1	1	S22
-46.0	-32.0	66.0	1	1	S23
-48.0	-55.0	59.0	1	1	S24
-25.0	-23.0	77.0	2	1	S25
