-37.0	-28.0	72.0	1	1	S1
-39.0	-37.0	71.0	1	1	S2
-39.0	-47.0	69.0	1	1	S3
-36.0	-63.0	63.0	1	1	S4
-16.0	-55.0	76.0	1	1	S5
-25.0	-38.0	78.0	1	1	S6
-8.0	-40.0	80.0	1	1	S7
-27.0	-29.0	77.0	1	1	S8
-9.0	-37.0	81.0	1	1	S9
2.0	-32.0	77.0	1	1	S10
-8.0	-18.0	80.0	1	1	S11
3.0	-15.0	77.0	1	1	S12
-3.0	-6.0	75.0	1	1	S13
5.0	-6.0	75.0	1	1	S14
-3.0	5.0	74.0	1	1	S15
-18.0	-3.0	75.0	1	1	S16
-16.0	14.0	71.0	1	1	S17
-30.0	4.0	70.0	1	1	S18
-20.0	-14.0	79.0	1	1	S19
-36.0	-10.0	70.0	1	1	S20
-43.0	-5.0	63.0	1	1	S21
-49.0	-19.0	63.0	1	1	S22
-47.0	-33.0	66.0	1	1	S23
-49.0	-56.0	57.0	1	1	S24
-25.0	-22.0	77.0	2	1	S25
