-34.0	-35.0	73.0	1	1	S1
-35.0	-46.0	71.0	1	1	S2
-34.0	-57.0	68.0	1	1	S3
-29.0	-72.0	60.0	1	1	S4
-11.0	-65.0	71.0	1	1	S5
-19.0	-50.0	78.0	1	1	S6
-3.0	-53.0	72.0	1	1	S7
-23.0	-39.0	78.0	1	1	S8
-4.0	-50.0	73.0	1	1	S9
6.0	-47.0	76.0	1	1	S10
-5.0	-30.0	79.0	1	1	S11
8.0	-27.0	80.0	1	1	S12
1.0	-14.0	76.0	1	1	S13
11.0	-17.0	80.0	1	1	S14
1.0	-1.0	74.0	1	1	S15
-15.0	-10.0	79.0	1	1	S16
-12.0	9.0	74.0	1	1	S17
-27.0	-1.0	72.0	1	1	S18
-15.0	-25.0	79.0	1	1	S19
-32.0	-17.0	74.0	1	1	S20
-39.0	-11.0	68.0	1	1	S21
-44.0	-27.0	68.0	1	1	S22
-42.0	-41.0	68.0	1	1	S23
-39.0	-65.0	60.0	1	1	S24
-19.0	-29.0	79.0	2	1	S25
