-39.0	-27.0	71.0	1	1	S1
-39.0	-37.0	71.0	1	1	S2
-38.0	-46.0	69.0	1	1	S3
-34.0	-63.0	64.0	1	1	S4
-13.0	-56.0	76.0	1	1	S5
-23.0	-38.0	78.0	1	1	S6
-6.0	-41.0	79.0	1	1	S7
-27.0	-29.0	77.0	1	1	S8
-7.0	-38.0	80.0	1	1	S9
5.0	-34.0	79.0	1	1	S10
-9.0	-20.0	80.0	1	1	S11
4.0	-17.0	78.0	1	1	S12
-4.0	-6.0	75.0	1	1	S13
6.0	-7.0	76.0	1	1	S14
-6.0	5.0	75.0	1	1	S15
-19.0	-4.0	75.0	1	1	S16
-18.0	14.0	71.0	1	1	S17
-31.0	5.0	69.0	1	1	S18
-21.0	-14.0	78.0	1	1	S19
-36.0	-8.0	69.0	1	1	S20
-43.0	-3.0	63.0	1	1	S21
-48.0	-17.0	63.0	1	1	S22
-47.0	-32.0	66.0	1	1	S23
-48.0	-54.0	59.0	1	1	S24
-25.0	-22.0	77.0	2	1	S25
