-35.0	-36.0	73.0	1	1	S1
-35.0	-46.0	71.0	1	1	S2
-34.0	-57.0	68.0	1	1	S3
-29.0	-72.0	60.0	1	1	S4
-11.0	-65.0	71.0	1	1	S5
-19.0	-51.0	77.0	1	1	S6
-3.0	-53.0	72.0	1	1	S7
-24.0	-39.0	78.0	1	1	S8
-4.0	-50.0	73.0	1	1	S9
6.0	-47.0	76.0	1	1	S10
-5.0	-30.0	79.0	1	1	S11
8.0	-27.0	80.0	1	1	S12
1.0	-14.0	76.0	1	1	S13
10.0	-18.0	80.0	1	1	S14
1.0	-1.0	74.0	1	1	S15
-16.0	-10.0	79.0	1	1	S16
-13.0	9.0	74.0	1	1	S17
-27.0	-1.0	72.0	1	1	S18
-16.0	-24.0	78.0	1	1	S19
-33.0	-17.0	73.0	1	1	S20
-40.0	-11.0	67.0	1	1	S21
-45.0	-27.0	67.0	1	1	S22
-42.0	-42.0	68.0	1	1	S23
-38.0	-65.0	60.0	1	1	S24
-21.0	-31.0	79.0	2	1	S25
