-39.0	-26.0	71.0	1	1	S1
-39.0	-37.0	71.0	1	1	S2
-38.0	-47.0	69.0	1	1	S3
-34.0	-64.0	64.0	1	1	S4
-15.0	-58.0	75.0	1	1	S5
-24.0	-40.0	78.0	1	1	S6
-7.0	-43.0	79.0	1	1	S7
-28.0	-29.0	77.0	1	1	S8
-8.0	-41.0	80.0	1	1	S9
3.0	-38.0	78.0	1	1	S10
-10.0	-20.0	81.0	1	1	S11
4.0	-18.0	78.0	1	1	S12
-3.0	-7.0	75.0	1	1	S13
6.0	-8.0	76.0	1	1	S14
-4.0	5.0	74.0	1	1	S15
-19.0	-3.0	75.0	1	1	S16
-16.0	14.0	71.0	1	1	S17
-31.0	6.0	69.0	1	1	S18
-21.0	-15.0	78.0	1	1	S19
-35.0	-9.0	70.0	1	1	S20
-42.0	-3.0	63.0	1	1	S21
-47.0	-18.0	64.0	1	1	S22
-46.0	-32.0	66.0	1	1	S23
-46.0	-56.0	60.0	1	1	S24
-25.0	-23.0	77.0	2	1	S25
