-42.0	2.0	62.0	1	1	S1
-46.0	-14.0	63.0	1	1	S2
-46.0	-43.0	64.0	1	1	S3
-56.0	-25.0	56.0	1	1	S4
-53.0	-42.0	59.0	1	1	S5
-62.0	-44.0	48.0	1	1	S6
-61.0	-25.0	51.0	1	1	S7
-54.0	-17.0	57.0	1	1	S8
-60.0	-16.0	49.0	1	1	S9
-65.0	-15.0	40.0	1	1	S10
-55.0	8.0	45.0	1	1	S11
-51.0	-9.0	57.0	1	1	S12
-50.0	4.0	54.0	1	1	S13
-44.0	-7.0	63.0	1	1	S14
-44.0	10.0	59.0	1	1	S15
-36.0	-23.0	72.0	1	1	S16
-36.0	-40.0	72.0	1	1	S17
-31.0	-5.0	71.0	1	1	S18
-24.0	-1.0	74.0	1	1	S19
-40.0	18.0	58.0	1	1	S20
-47.0	-12.0	61.0	2	1	S21
