-44.0	-1.0	61.0	1	1	S1
-47.0	-16.0	63.0	1	1	S2
-44.0	-44.0	65.0	1	1	S3
-55.0	-27.0	58.0	1	1	S4
-49.0	-44.0	62.0	1	1	S5
-61.0	-44.0	50.0	1	1	S6
-61.0	-25.0	51.0	1	1	S7
-54.0	-19.0	58.0	1	1	S8
-60.0	-16.0	49.0	1	1	S9
-65.0	-15.0	40.0	1	1	S10
-55.0	8.0	45.0	1	1	S11
-52.0	-10.0	56.0	1	1	S12
-51.0	3.0	53.0	1	1	S13
-45.0	-9.0	63.0	1	1	S14
-46.0	7.0	57.0	1	1	S15
-36.0	-27.0	73.0	1	1	S16
-32.0	-43.0	74.0	1	1	S17
-33.0	-7.0	70.0	1	1	S18
-25.0	-6.0	74.0	1	1	S19
-43.0	16.0	57.0	1	1	S20
-48.0	-14.0	61.0	2	1	S21
