-47.0	-4.0	60.0	1	1	S1
-49.0	-18.0	62.0	1	1	S2
-43.0	-44.0	66.0	1	1	S3
-55.0	-29.0	56.0	1	1	S4
-49.0	-44.0	62.0	1	1	S5
-60.0	-46.0	50.0	1	1	S6
-61.0	-27.0	51.0	1	1	S7
-56.0	-22.0	57.0	1	1	S8
-61.0	-19.0	48.0	1	1	S9
-66.0	-19.0	39.0	1	1	S10
-58.0	3.0	44.0	1	1	S11
-53.0	-13.0	57.0	1	1	S12
-53.0	0.0	52.0	1	1	S13
-45.0	-10.0	63.0	1	1	S14
-46.0	6.0	58.0	1	1	S15
-35.0	-26.0	73.0	1	1	S16
-30.0	-41.0	75.0	1	1	S17
-34.0	-7.0	70.0	1	1	S18
-26.0	-4.0	73.0	1	1	S19
-45.0	15.0	55.0	1	1	S20
-50.0	-17.0	61.0	2	1	S21
