-40.0	1.0	64.0	1	1	S1
-45.0	-14.0	64.0	1	1	S2
-44.0	-44.0	65.0	1	1	S3
-54.0	-26.0	59.0	1	1	S4
-50.0	-43.0	61.0	1	1	S5
-60.0	-46.0	50.0	1	1	S6
-59.0	-26.0	52.0	1	1	S7
-53.0	-18.0	59.0	1	1	S8
-60.0	-18.0	51.0	1	1	S9
-65.0	-18.0	42.0	1	1	S10
-54.0	7.0	47.0	1	1	S11
-50.0	-10.0	58.0	1	1	S12
-48.0	2.0	57.0	1	1	S13
-43.0	-7.0	64.0	1	1	S14
-44.0	10.0	59.0	1	1	S15
-36.0	-22.0	72.0	1	1	S16
-35.0	-38.0	73.0	1	1	S17
-31.0	-5.0	71.0	1	1	S18
-27.0	0.0	72.0	1	1	S19
-40.0	17.0	58.0	1	1	S20
-47.0	-12.0	61.0	2	1	S21
