-46.0	2.0	59.0	1	1	S1
-48.0	-9.0	60.0	1	1	S2
-48.0	-37.0	64.0	1	1	S3
-57.0	-21.0	55.0	1	1	S4
-54.0	-37.0	58.0	1	1	S5
-64.0	-37.0	47.0	1	1	S6
-62.0	-18.0	47.0	1	1	S7
-55.0	-12.0	54.0	1	1	S8
-61.0	-12.0	46.0	1	1	S9
-65.0	-9.0	37.0	1	1	S10
-54.0	11.0	43.0	1	1	S11
-53.0	-6.0	54.0	1	1	S12
-53.0	7.0	49.0	1	1	S13
-45.0	-6.0	62.0	1	1	S14
-46.0	11.0	56.0	1	1	S15
-38.0	-23.0	71.0	1	1	S16
-37.0	-37.0	72.0	1	1	S17
-34.0	-5.0	69.0	1	1	S18
-27.0	-4.0	73.0	1	1	S19
-42.0	17.0	57.0	1	1	S20
-50.0	-10.0	58.0	2	1	S21
