-38.0	3.0	65.0	1	1	S1
-44.0	-15.0	65.0	1	1	S2
-44.0	-37.0	67.0	1	1	S3
-51.0	-25.0	62.0	1	1	S4
-47.0	-36.0	65.0	1	1	S5
-58.0	-36.0	55.0	1	1	S6
-57.0	-22.0	55.0	1	1	S7
-51.0	-19.0	61.0	1	1	S8
-56.0	-14.0	54.0	1	1	S9
-61.0	-14.0	47.0	1	1	S10
-52.0	8.0	50.0	1	1	S11
-48.0	-10.0	60.0	1	1	S12
-47.0	7.0	56.0	1	1	S13
-39.0	-6.0	67.0	1	1	S14
-40.0	13.0	61.0	1	1	S15
-31.0	-25.0	75.0	1	1	S16
-30.0	-35.0	75.0	1	1	S17
-29.0	-7.0	73.0	1	1	S18
-14.0	-2.0	79.0	1	1	S19
-35.0	20.0	60.0	1	1	S20
-42.0	-9.0	65.0	2	1	S21
