-35.0	11.0	65.0	1	1	S1
-40.0	-8.0	66.0	1	1	S2
-45.0	-34.0	67.0	1	1	S3
-51.0	-20.0	61.0	1	1	S4
-48.0	-34.0	65.0	1	1	S5
-59.0	-35.0	54.0	1	1	S6
-57.0	-19.0	55.0	1	1	S7
-46.0	-12.0	62.0	1	1	S8
-55.0	-10.0	53.0	1	1	S9
-61.0	-14.0	46.0	1	1	S10
-48.0	16.0	51.0	1	1	S11
-45.0	-3.0	61.0	1	1	S12
-42.0	15.0	58.0	1	1	S13
-36.0	2.0	67.0	1	1	S14
-35.0	20.0	60.0	1	1	S15
-28.0	-16.0	75.0	1	1	S16
-29.0	-29.0	76.0	1	1	S17
-24.0	5.0	73.0	1	1	S18
-11.0	10.0	74.0	1	1	S19
-29.0	29.0	57.0	1	1	S20
-41.0	-4.0	64.0	2	1	S21
