-45.0	-26.0	67.0	1	1	S1
-42.0	-36.0	69.0	1	1	S2
-35.0	-47.0	71.0	1	1	S3
-57.0	-39.0	56.0	1	1	S4
-51.0	-18.0	61.0	1	1	S5
-62.0	-20.0	48.0	1	1	S6
-61.0	-33.0	52.0	1	1	S7
-68.0	-27.0	37.0	1	1	S8
-62.0	-14.0	45.0	1	1	S9
-65.0	-13.0	38.0	1	1	S10
-58.0	3.0	43.0	1	1	S11
-53.0	-12.0	56.0	1	1	S12
-54.0	0.0	51.0	1	1	S13
-45.0	-19.0	65.0	1	1	S14
-45.0	-2.0	61.0	1	1	S15
-46.0	9.0	57.0	1	1	S16
-34.0	-3.0	69.0	1	1	S17
-33.0	-16.0	73.0	1	1	S18
-25.0	-15.0	77.0	1	1	S19
-30.0	-30.0	76.0	1	1	S20
-29.0	-41.0	75.0	1	1	S21
-49.0	-18.0	62.0	2	1	S22
