-45.0	-25.0	67.0	1	1	S1
-44.0	-36.0	67.0	1	1	S2
-39.0	-50.0	68.0	1	1	S3
-61.0	-43.0	50.0	1	1	S4
-50.0	-17.0	61.0	1	1	S5
-64.0	-22.0	46.0	1	1	S6
-63.0	-38.0	47.0	1	1	S7
-69.0	-33.0	30.0	1	1	S8
-62.0	-15.0	44.0	1	1	S9
-66.0	-16.0	36.0	1	1	S10
-56.0	3.0	46.0	1	1	S11
-51.0	-10.0	57.0	1	1	S12
-51.0	2.0	54.0	1	1	S13
-44.0	-17.0	66.0	1	1	S14
-40.0	2.0	64.0	1	1	S15
-40.0	12.0	61.0	1	1	S16
-28.0	2.0	71.0	1	1	S17
-29.0	-12.0	74.0	1	1	S18
-23.0	-12.0	77.0	1	1	S19
-30.0	-26.0	76.0	1	1	S20
-30.0	-40.0	75.0	1	1	S21
-49.0	-18.0	62.0	2	1	S22
