-46.0	-27.0	67.0	1	1	S1
-42.0	-39.0	68.0	1	1	S2
-36.0	-51.0	69.0	1	1	S3
-59.0	-40.0	53.0	1	1	S4
-52.0	-18.0	60.0	1	1	S5
-62.0	-17.0	46.0	1	1	S6
-62.0	-33.0	50.0	1	1	S7
-69.0	-24.0	33.0	1	1	S8
-62.0	-10.0	43.0	1	1	S9
-65.0	-9.0	35.0	1	1	S10
-57.0	6.0	43.0	1	1	S11
-53.0	-9.0	55.0	1	1	S12
-53.0	4.0	51.0	1	1	S13
-46.0	-19.0	65.0	1	1	S14
-44.0	1.0	61.0	1	1	S15
-45.0	12.0	57.0	1	1	S16
-31.0	0.0	70.0	1	1	S17
-31.0	-16.0	74.0	1	1	S18
-23.0	-14.0	77.0	1	1	S19
-29.0	-33.0	76.0	1	1	S20
-29.0	-45.0	75.0	1	1	S21
-49.0	-18.0	62.0	2	1	S22
