-47.0	-26.0	66.0	1	1	S1
-45.0	-38.0	66.0	1	1	S2
-40.0	-52.0	66.0	1	1	S3
-62.0	-43.0	49.0	1	1	S4
-51.0	-18.0	61.0	1	1	S5
-63.0	-21.0	47.0	1	1	S6
-64.0	-37.0	47.0	1	1	S7
-69.0	-30.0	32.0	1	1	S8
-62.0	-14.0	45.0	1	1	S9
-66.0	-13.0	36.0	1	1	S10
-55.0	5.0	47.0	1	1	S11
-51.0	-10.0	57.0	1	1	S12
-50.0	4.0	54.0	1	1	S13
-45.0	-17.0	65.0	1	1	S14
-39.0	3.0	64.0	1	1	S15
-39.0	13.0	62.0	1	1	S16
-28.0	2.0	71.0	1	1	S17
-30.0	-13.0	74.0	1	1	S18
-24.0	-13.0	77.0	1	1	S19
-31.0	-28.0	75.0	1	1	S20
-32.0	-43.0	74.0	1	1	S21
-49.0	-18.0	62.0	2	1	S22
