-41.0	-27.0	70.0	1	1	S1
-38.0	-38.0	71.0	1	1	S2
-34.0	-48.0	72.0	1	1	S3
-57.0	-45.0	54.0	1	1	S4
-47.0	-20.0	64.0	1	1	S5
-62.0	-25.0	50.0	1	1	S6
-61.0	-39.0	51.0	1	1	S7
-68.0	-37.0	33.0	1	1	S8
-62.0	-19.0	47.0	1	1	S9
-66.0	-19.0	39.0	1	1	S10
-56.0	0.0	49.0	1	1	S11
-49.0	-14.0	61.0	1	1	S12
-49.0	-2.0	57.0	1	1	S13
-40.0	-19.0	69.0	1	1	S14
-37.0	-2.0	67.0	1	1	S15
-38.0	9.0	64.0	1	1	S16
-26.0	-1.0	73.0	1	1	S17
-26.0	-14.0	76.0	1	1	S18
-17.0	-13.0	79.0	1	1	S19
-25.0	-28.0	78.0	1	1	S20
-25.0	-40.0	77.0	1	1	S21
-46.0	-20.0	65.0	2	1	S22
