-37.0	-28.0	72.0	1	1	S1
-34.0	-40.0	73.0	1	1	S2
-30.0	-46.0	74.0	1	1	S3
-51.0	-41.0	61.0	1	1	S4
-46.0	-24.0	66.0	1	1	S5
-57.0	-26.0	55.0	1	1	S6
-54.0	-38.0	58.0	1	1	S7
-64.0	-34.0	46.0	1	1	S8
-59.0	-21.0	52.0	1	1	S9
-63.0	-20.0	46.0	1	1	S10
-56.0	-4.0	50.0	1	1	S11
-48.0	-17.0	63.0	1	1	S12
-50.0	-7.0	57.0	1	1	S13
-39.0	-23.0	70.0	1	1	S14
-40.0	-7.0	66.0	1	1	S15
-42.0	2.0	62.0	1	1	S16
-28.0	-11.0	74.0	1	1	S17
-28.0	-18.0	76.0	1	1	S18
-22.0	-17.0	78.0	1	1	S19
-26.0	-31.0	77.0	1	1	S20
-25.0	-40.0	77.0	1	1	S21
-45.0	-22.0	66.0	2	1	S22
