-40.0	-37.0	70.0	1	1	S1
-36.0	-45.0	71.0	1	1	S2
-28.0	-56.0	72.0	1	1	S3
-49.0	-49.0	60.0	1	1	S4
-49.0	-32.0	64.0	1	1	S5
-58.0	-32.0	55.0	1	1	S6
-54.0	-43.0	58.0	1	1	S7
-65.0	-39.0	44.0	1	1	S8
-60.0	-28.0	52.0	1	1	S9
-64.0	-26.0	46.0	1	1	S10
-59.0	-10.0	47.0	1	1	S11
-51.0	-25.0	62.0	1	1	S12
-54.0	-13.0	56.0	1	1	S13
-43.0	-32.0	69.0	1	1	S14
-44.0	-15.0	65.0	1	1	S15
-45.0	-1.0	60.0	1	1	S16
-32.0	-14.0	73.0	1	1	S17
-32.0	-27.0	75.0	1	1	S18
-21.0	-26.0	78.0	1	1	S19
-27.0	-39.0	77.0	1	1	S20
-24.0	-49.0	76.0	1	1	S21
-45.0	-29.0	67.0	2	1	S22
