-40.0	-34.0	70.0	1	1	S1
-36.0	-43.0	71.0	1	1	S2
-30.0	-54.0	72.0	1	1	S3
-52.0	-50.0	57.0	1	1	S4
-48.0	-26.0	65.0	1	1	S5
-61.0	-32.0	52.0	1	1	S6
-57.0	-45.0	54.0	1	1	S7
-66.0	-42.0	40.0	1	1	S8
-62.0	-25.0	49.0	1	1	S9
-66.0	-26.0	42.0	1	1	S10
-58.0	-4.0	46.0	1	1	S11
-51.0	-19.0	61.0	1	1	S12
-52.0	-6.0	55.0	1	1	S13
-41.0	-25.0	69.0	1	1	S14
-40.0	-4.0	65.0	1	1	S15
-42.0	9.0	61.0	1	1	S16
-28.0	-2.0	72.0	1	1	S17
-28.0	-19.0	76.0	1	1	S18
-16.0	-16.0	80.0	1	1	S19
-24.0	-34.0	78.0	1	1	S20
-23.0	-46.0	77.0	1	1	S21
-44.0	-24.0	67.0	2	1	S22
